<?xml version="1.0" encoding="UTF-8"?>
<svg width="122px" height="55px" viewBox="0 0 122 55" version="1.1" xmlns="http://www.w3.org/2000/svg" xmlns:xlink="http://www.w3.org/1999/xlink">
    <title>D3771B6B-0897-4A7A-B10E-514B7A8309E5</title>
    <defs>
        <filter id="filter-1">
            <feColorMatrix in="SourceGraphic" type="matrix" values="0 0 0 0 0.199474 0 0 0 0 0.199474 0 0 0 0 0.199474 0 0 0 1.000000 0"></feColorMatrix>
        </filter>
    </defs>
    <g stroke="none" stroke-width="1" fill="none" fill-rule="evenodd">
        <g transform="translate(-281.000000, -5866.000000)">
            <g id="Social" transform="translate(0.000000, 5455.000000)">
                <g id="Group-5" transform="translate(264.000000, 359.000000)">
                    <g id="Social-info">
                        <g transform="translate(17.000000, 52.000000)">
                            <g id="Logo">
                                <g filter="url(#filter-1)" id="RDO">
                                    <g>
                                        <path d="M29.9211679,27.3669355 C30.2328467,26.8346774 30.4554745,26.3024194 30.6781022,25.6370968 L0.17810219,25.6370968 C0.222627737,26.2137097 0.311678832,26.7903226 0.400729927,27.3669355 L29.9211679,27.3669355 Z" id="Path" fill="#000000" fill-rule="nonzero"></path>
                                        <path d="M23.1532847,0.399193548 C19.9919708,0.399193548 16.919708,1.02016129 14.2036496,2.21774194 L14.2036496,12.4637097 L13.8474453,12.4637097 C13.8474453,12.4637097 24.7116788,12.5524194 26.1810219,12.5524194 C28.6744526,12.5524194 34.5518248,15.0362903 34.5518248,23.0645161 C34.5518248,30.4717742 27.5613139,33.2217742 27.5613139,33.2217742 L33.750365,43.9556452 C41.1861314,40.141129 46.2620438,32.4233871 46.2620438,23.4637097 C46.2620438,10.733871 35.9321168,0.399193548 23.1532847,0.399193548" id="Path" fill="#000000" fill-rule="nonzero"></path>
                                        <path d="M0.845985401,17.3427419 L28.629927,17.3427419 C27.2051095,16.1895161 25.5131387,16.0564516 24.9343066,16.0564516 L13.8029197,16.0564516 L13.8029197,12.4193548 L2.80510949,12.4193548 C2.00364964,13.9717742 1.33576642,15.6129032 0.845985401,17.3427419" id="Path" fill="#000000" fill-rule="nonzero"></path>
                                        <path d="M13.7583942,30.9596774 C13.7583942,30.9596774 23.2423358,31.0483871 24.7116788,31.0483871 C25.4686131,31.0483871 27.1605839,30.4274194 28.5854015,29.0524194 L0.756934307,29.0524194 C2.49343066,35.9717742 7.34671533,41.6048387 13.7583942,44.4435484 L13.7583942,30.9596774 L13.7583942,30.9596774 Z" id="Path" fill="#000000" fill-rule="nonzero"></path>
                                        <path d="M50.4029197,24.3064516 L59.0408759,24.3064516 C61.0890511,24.3064516 62.380292,24.5725806 63.6270073,25.3709677 C65.6751825,26.6129032 66.6992701,28.4314516 66.6992701,30.8266129 C66.6992701,32.2903226 66.2540146,33.6653226 65.4970803,34.5080645 C65.0072993,35.0846774 64.3394161,35.4395161 63.0036496,35.8387097 L63.0036496,36.016129 C63.5379562,36.3709677 63.7605839,36.5483871 63.9832117,36.9032258 L68.3021898,43.2903226 L60.2875912,43.2903226 L57.5270073,37.7459677 C57.3934307,37.4798387 57.3489051,37.391129 57.259854,37.1693548 L57.1262774,37.2137097 L57.1262774,43.2903226 L50.3583942,43.2903226 L50.3583942,24.3064516 L50.4029197,24.3064516 Z M58.1058394,32.7782258 C59.2189781,32.7782258 59.9313869,32.1572581 59.9313869,31.1814516 C59.9313869,30.2056452 59.2635036,29.5403226 58.3729927,29.5403226 L57.1708029,29.5403226 L57.1708029,32.7782258 L58.1058394,32.7782258 Z" id="Shape" fill="#000000" fill-rule="nonzero"></path>
                                        <path d="M70.7510949,24.3064516 L78.0978102,24.3064516 C84.9547445,24.3064516 89.140146,27.9435484 89.140146,33.8870968 C89.140146,37.1693548 88.2051095,39.3427419 86.0233577,41.0725806 C84.2868613,42.4919355 82.1051095,43.2459677 79.8343066,43.2459677 L70.7065693,43.2459677 L70.7065693,24.3064516 L70.7510949,24.3064516 Z M78.6321168,37.4798387 C80.7248175,37.4798387 82.1941606,35.9717742 82.1941606,33.8427419 C82.1941606,31.625 80.7693431,30.1169355 78.6321168,30.1169355 L77.6525547,30.1169355 L77.6525547,37.4798387 L78.6321168,37.4798387 L78.6321168,37.4798387 Z" id="Shape" fill="#000000" fill-rule="nonzero"></path>
                                        <path d="M112.382482,33.7983871 C112.382482,39.4758065 107.929927,43.5564516 101.785401,43.5564516 C95.6408759,43.5564516 91.2773723,39.5201613 91.2773723,33.8427419 C91.2773723,28.0766129 95.6408759,23.9959677 101.918978,23.9959677 C108.063504,24.0403226 112.382482,28.0322581 112.382482,33.7983871 M98.2678832,33.7983871 C98.2678832,35.9274194 99.7372263,37.4354839 101.829927,37.4354839 C103.878102,37.4354839 105.347445,35.9717742 105.347445,33.8427419 C105.347445,31.625 103.878102,30.1169355 101.740876,30.1169355 C99.7817518,30.1612903 98.2678832,31.7137097 98.2678832,33.7983871" id="Shape" fill="#000000" fill-rule="nonzero"></path>
                                        <polygon id="Path" fill="#ffffff" fill-rule="nonzero" points="50.6255474 47.5927419 50.6255474 49.2782258 53.2970803 49.2782258 53.2970803 50.2983871 50.6255474 50.2983871 50.6255474 52.6935484 53.3861314 52.6935484 53.3861314 53.7137097 49.6014599 53.7137097 49.6014599 46.5725806 53.3861314 46.5725806 53.3861314 47.5927419"></polygon>
                                        <path d="M60.4211679,53.8467742 L59.8868613,53.2701613 C59.3080292,53.625 58.640146,53.8467742 57.9722628,53.8467742 C55.9686131,53.8467742 54.410219,52.2056452 54.410219,50.1653226 C54.410219,48.125 56.0131387,46.4395161 58.0167883,46.4395161 C60.020438,46.4395161 61.5788321,48.125 61.5788321,50.2540323 C61.5788321,51.2298387 61.2671533,51.983871 60.5992701,52.7379032 L61.7124088,53.891129 L60.4211679,53.891129 L60.4211679,53.8467742 Z M59.8423358,51.8951613 C60.2875912,51.3629032 60.510219,50.875 60.510219,50.1209677 C60.510219,48.6129032 59.3970803,47.4153226 57.9722628,47.4153226 C56.5029197,47.4153226 55.4343066,48.5685484 55.4343066,50.1209677 C55.4343066,51.6290323 56.5029197,52.7822581 57.9277372,52.7822581 C58.3284672,52.7822581 58.8182482,52.6491935 59.129927,52.4717742 L57.5270073,50.8306452 L58.8627737,50.8306452 L59.8423358,51.8951613 Z" id="Shape" fill="#000000" fill-rule="nonzero"></path>
                                        <path d="M63.8941606,50.875 C63.8941606,51.4959677 63.9386861,51.8064516 64.1167883,52.1169355 C64.3839416,52.5604839 64.8737226,52.8266129 65.4080292,52.8266129 C65.9423358,52.8266129 66.4321168,52.5604839 66.6992701,52.1169355 C66.8773723,51.8064516 66.9218978,51.4959677 66.9218978,50.875 L66.9218978,46.5725806 L67.9459854,46.5725806 L67.9459854,51.1854839 C67.9459854,52.7379032 66.8773723,53.891129 65.4080292,53.891129 C63.9386861,53.891129 62.870073,52.7379032 62.870073,51.1854839 L62.870073,46.5725806 L63.8941606,46.5725806 L63.8941606,50.875 L63.8941606,50.875 Z" id="Path" fill="#000000" fill-rule="nonzero"></path>
                                        <rect id="Rectangle" fill="#000000" fill-rule="nonzero" x="69.5934307" y="46.5725806" width="1.02408759" height="7.14112903"></rect>
                                        <path d="M73.2890511,53.7137097 L72.2649635,53.7137097 L72.2649635,46.5725806 L73.4226277,46.5725806 C74.4912409,46.5725806 74.8919708,46.6612903 75.3372263,47.016129 C75.7824818,47.3709677 76.0941606,48.0362903 76.0941606,48.7016129 C76.0941606,49.9879032 75.2036496,50.8306452 73.7788321,50.8306452 L73.2890511,50.8306452 L73.2890511,53.7137097 Z M73.689781,49.8104839 C74.6693431,49.8104839 75.1145985,49.4556452 75.1145985,48.6572581 C75.1145985,47.9475806 74.6248175,47.5483871 73.6452555,47.5483871 L73.2890511,47.5483871 L73.2890511,49.8104839 L73.689781,49.8104839 Z" id="Shape" fill="#000000" fill-rule="nonzero"></path>
                                        <polygon id="Path" fill="#000000" fill-rule="nonzero" points="78.3649635 45.9959677 80.7248175 51.5846774 83.1737226 45.9959677 84.4649635 53.7137097 83.3963504 53.7137097 82.7284672 49.4112903 80.7248175 54.0241935 78.7211679 49.3669355 78.0087591 53.7137097 76.940146 53.7137097"></polygon>
                                        <polygon id="Path" fill="#000000" fill-rule="nonzero" points="86.9583942 47.5927419 86.9583942 49.2782258 89.629927 49.2782258 89.629927 50.2983871 86.9583942 50.2983871 86.9583942 52.6935484 89.6744526 52.6935484 89.6744526 53.7137097 85.889781 53.7137097 85.889781 46.5725806 89.6744526 46.5725806 89.6744526 47.5927419"></polygon>
                                        <polygon id="Path" fill="#000000" fill-rule="nonzero" points="91.0547445 46.0846774 96.0416058 51.4959677 96.0416058 46.5725806 97.110219 46.5725806 97.110219 54.1572581 92.0788321 48.7016129 92.0788321 53.7137097 91.0547445 53.7137097"></polygon>
                                        <polygon id="Path" fill="#000000" fill-rule="nonzero" points="100.627737 53.7137097 99.6036496 53.7137097 99.6036496 47.5927419 98.0007299 47.5927419 98.0007299 46.5725806 102.186131 46.5725806 102.186131 47.5927419 100.627737 47.5927419"></polygon>
                                        <path d="M110.779562,48.2137097 C110.111679,47.6370968 109.621898,47.4153226 108.909489,47.4153226 C107.529197,47.4153226 106.416058,48.6129032 106.416058,50.1209677 C106.416058,51.6290323 107.529197,52.7822581 108.954015,52.7822581 C109.577372,52.7822581 110.111679,52.5604839 110.779562,51.983871 L110.779562,53.2701613 C110.156204,53.625 109.577372,53.8024194 108.954015,53.8024194 C106.950365,53.8024194 105.391971,52.1612903 105.391971,50.0766129 C105.391971,48.0806452 107.039416,46.3951613 108.954015,46.3951613 C109.666423,46.3951613 110.156204,46.5282258 110.779562,46.9274194 L110.779562,48.2137097 Z" id="Path" fill="#000000" fill-rule="nonzero"></path>
                                        <path d="M118.838686,50.1209677 C118.838686,52.1612903 117.235766,53.8467742 115.276642,53.8467742 C113.272993,53.8467742 111.670073,52.2056452 111.670073,50.1653226 C111.670073,48.0806452 113.272993,46.4395161 115.276642,46.4395161 C117.235766,46.3951613 118.838686,48.0806452 118.838686,50.1209677 M112.738686,50.1653226 C112.738686,51.6733871 113.851825,52.8266129 115.276642,52.8266129 C116.70146,52.8266129 117.814599,51.6290323 117.814599,50.1653226 C117.814599,48.6129032 116.70146,47.4596774 115.276642,47.4596774 C113.851825,47.4153226 112.738686,48.6129032 112.738686,50.1653226" id="Shape" fill="#000000" fill-rule="nonzero"></path>
                                        <path d="M121.243066,53.1814516 C121.243066,53.5362903 120.975912,53.8467742 120.619708,53.8467742 C120.263504,53.8467742 119.99635,53.5362903 119.99635,53.1814516 C119.99635,52.8266129 120.263504,52.516129 120.619708,52.516129 C120.975912,52.5604839 121.243066,52.8266129 121.243066,53.1814516" id="Path" fill="#000000" fill-rule="nonzero"></path>
                                        <path d="M117.324818,40.3185484 C117.324818,41.6048387 116.30073,42.6693548 115.009489,42.6693548 C113.718248,42.6693548 112.649635,41.6491935 112.649635,40.3185484 C112.649635,39.0322581 113.673723,38.0120968 114.964964,38.0120968 C116.256204,37.9677419 117.324818,39.0322581 117.324818,40.3185484 M114.964964,38.3225806 C113.89635,38.3225806 113.050365,39.2096774 113.050365,40.3185484 C113.050365,41.4274194 113.940876,42.3145161 115.009489,42.3145161 C116.078102,42.3145161 116.968613,41.4274194 116.968613,40.3185484 C116.924088,39.2096774 116.078102,38.3225806 114.964964,38.3225806 L114.964964,38.3225806 Z M116.078102,41.6491935 L115.454745,41.6491935 L114.653285,40.5846774 L114.653285,41.6491935 L114.118978,41.6491935 L114.118978,38.9435484 L114.653285,38.9435484 C115.365693,38.9435484 115.766423,39.2096774 115.766423,39.7419355 C115.766423,40.0967742 115.543796,40.4072581 115.232117,40.4959677 L115.187591,40.4959677 L116.078102,41.6491935 Z M114.742336,40.1854839 C115.09854,40.1854839 115.276642,40.0524194 115.276642,39.7862903 C115.276642,39.5645161 115.09854,39.4314516 114.742336,39.4314516 L114.653285,39.4314516 L114.653285,40.1854839 L114.742336,40.1854839 Z" id="Shape" fill="#000000" fill-rule="nonzero"></path>
                                    </g>
                                </g>
                            </g>
                        </g>
                    </g>
                </g>
            </g>
        </g>
    </g>
</svg>