<?xml version="1.0" encoding="UTF-8"?>
<svg width="111px" height="51px" viewBox="0 0 111 51" version="1.1" xmlns="http://www.w3.org/2000/svg" xmlns:xlink="http://www.w3.org/1999/xlink">
    <title>F5A0DECB-563A-425E-9A1C-72C5A356AC81</title>
    <defs>
        <filter id="filter-1">
            <feColorMatrix in="SourceGraphic" type="matrix" values="0 0 0 0 0.199474 0 0 0 0 0.199474 0 0 0 0 0.199474 0 0 0 1.000000 0"></feColorMatrix>
        </filter>
    </defs>
    <g id="Home" stroke="none" stroke-width="1" fill="none" fill-rule="evenodd">
        <g id="RDO-Header" transform="translate(-206.000000, -830.000000)">
            <g id="nav/1-header/1-desktop/default" transform="translate(0.000000, 823.000000)">
                <g id="logo/RDO-1" transform="translate(206.000000, 7.053846)">
                    <g id="Logo">
                        <g filter="url(#filter-1)" id="RDO">
                            <g>
                                <path d="M27.2233577,25.0704094 C27.5069343,24.5828164 27.7094891,24.0952233 27.9120438,23.485732 L0.162043796,23.485732 C0.202554745,24.0139578 0.283576642,24.5421836 0.36459854,25.0704094 L27.2233577,25.0704094 Z" id="Path" fill="#000000" fill-rule="nonzero"></path>
                                <path d="M21.0656934,0.365694789 C18.1894161,0.365694789 15.3941606,0.93455335 12.9229927,2.03163772 L12.9229927,11.417804 L12.5989051,11.417804 C12.5989051,11.417804 22.4835766,11.4990695 23.820438,11.4990695 C26.0890511,11.4990695 31.4364964,13.7745037 31.4364964,21.1290323 C31.4364964,27.9147022 25.0762774,30.433933 25.0762774,30.433933 L30.7072993,40.2670596 C37.4726277,36.7726427 42.0908759,29.7025434 42.0908759,21.494727 C42.0908759,9.83312655 32.6923358,0.365694789 21.0656934,0.365694789" id="Path" fill="#000000" fill-rule="nonzero"></path>
                                <path d="M0.769708029,15.8874069 L26.0485401,15.8874069 C24.7521898,14.8309553 23.2127737,14.7090571 22.6861314,14.7090571 L12.5583942,14.7090571 L12.5583942,11.3771712 L2.55218978,11.3771712 C1.8229927,12.7993176 1.21532847,14.3027295 0.769708029,15.8874069" id="Path" fill="#000000" fill-rule="nonzero"></path>
                                <path d="M12.5178832,28.3616625 C12.5178832,28.3616625 21.1467153,28.442928 22.4835766,28.442928 C23.1722628,28.442928 24.7116788,27.8740695 26.0080292,26.6144541 L0.688686131,26.6144541 C2.26861314,32.9531638 6.68430657,38.1135236 12.5178832,40.7140199 L12.5178832,28.3616625 L12.5178832,28.3616625 Z" id="Path" fill="#000000" fill-rule="nonzero"></path>
                                <path d="M45.8583942,22.2667494 L53.7175182,22.2667494 C55.5810219,22.2667494 56.7558394,22.5105459 57.890146,23.2419355 C59.7536496,24.3796526 60.6854015,26.0455955 60.6854015,28.2397643 C60.6854015,29.5806452 60.280292,30.8402605 59.5916058,31.6122829 C59.1459854,32.1405087 58.5383212,32.4655707 57.3229927,32.8312655 L57.3229927,32.9937965 C57.8091241,33.3188586 58.0116788,33.4813896 58.2142336,33.8064516 L62.1437956,39.6575682 L54.8518248,39.6575682 L52.340146,34.5784739 C52.2186131,34.3346774 52.1781022,34.2534119 52.0970803,34.0502481 L51.9755474,34.0908809 L51.9755474,39.6575682 L45.8178832,39.6575682 L45.8178832,22.2667494 L45.8583942,22.2667494 Z M52.8667883,30.0276055 C53.879562,30.0276055 54.5277372,29.4587469 54.5277372,28.5648263 C54.5277372,27.6709057 53.920073,27.0614144 53.109854,27.0614144 L52.0160584,27.0614144 L52.0160584,30.0276055 L52.8667883,30.0276055 Z" id="Shape" fill="#000000" fill-rule="nonzero"></path>
                                <path d="M64.3718978,22.2667494 L71.0562044,22.2667494 C77.2948905,22.2667494 81.1029197,25.5986352 81.1029197,31.0434243 C81.1029197,34.0502481 80.2521898,36.0412531 78.2671533,37.6259305 C76.6872263,38.9261787 74.7021898,39.6169355 72.6361314,39.6169355 L64.3313869,39.6169355 L64.3313869,22.2667494 L64.3718978,22.2667494 Z M71.5423358,34.3346774 C73.4463504,34.3346774 74.7832117,32.9531638 74.7832117,31.0027916 C74.7832117,28.9711538 73.4868613,27.5896402 71.5423358,27.5896402 L70.6510949,27.5896402 L70.6510949,34.3346774 L71.5423358,34.3346774 L71.5423358,34.3346774 Z" id="Shape" fill="#000000" fill-rule="nonzero"></path>
                                <path d="M102.249635,30.9621588 C102.249635,36.1631514 98.1985401,39.9013648 92.6080292,39.9013648 C87.0175182,39.9013648 83.0474453,36.2037841 83.0474453,31.0027916 C83.0474453,25.7205335 87.0175182,21.9823201 92.729562,21.9823201 C98.320073,22.0229529 102.249635,25.6799007 102.249635,30.9621588 M89.4076642,30.9621588 C89.4076642,32.912531 90.7445255,34.2940447 92.6485401,34.2940447 C94.5120438,34.2940447 95.8489051,32.9531638 95.8489051,31.0027916 C95.8489051,28.9711538 94.5120438,27.5896402 92.5675182,27.5896402 C90.7850365,27.630273 89.4076642,29.0524194 89.4076642,30.9621588" id="Shape" fill="#000000" fill-rule="nonzero"></path>
                                <polygon id="Path" fill="#000000" fill-rule="nonzero" points="46.0609489 43.5989454 46.0609489 45.1429901 48.4916058 45.1429901 48.4916058 46.0775434 46.0609489 46.0775434 46.0609489 48.2717122 48.5726277 48.2717122 48.5726277 49.2062655 45.1291971 49.2062655 45.1291971 42.6643921 48.5726277 42.6643921 48.5726277 43.5989454"></polygon>
                                <path d="M54.9733577,49.3281638 L54.4872263,48.799938 C53.9605839,49.125 53.3529197,49.3281638 52.7452555,49.3281638 C50.9222628,49.3281638 49.5043796,47.8247519 49.5043796,45.9556452 C49.5043796,44.0865385 50.9627737,42.5424938 52.7857664,42.5424938 C54.6087591,42.5424938 56.0266423,44.0865385 56.0266423,46.0369107 C56.0266423,46.9308313 55.7430657,47.6215881 55.1354015,48.3123449 L56.1481752,49.3687965 L54.9733577,49.3687965 L54.9733577,49.3281638 Z M54.4467153,47.5403226 C54.8518248,47.0527295 55.0543796,46.6057692 55.0543796,45.9150124 C55.0543796,44.5334988 54.0416058,43.4364144 52.7452555,43.4364144 C51.4083942,43.4364144 50.4361314,44.492866 50.4361314,45.9150124 C50.4361314,47.2965261 51.4083942,48.3529777 52.7047445,48.3529777 C53.0693431,48.3529777 53.5149635,48.2310794 53.7985401,48.0685484 L52.340146,46.5651365 L53.5554745,46.5651365 L54.4467153,47.5403226 Z" id="Shape" fill="#000000" fill-rule="nonzero"></path>
                                <path d="M58.1332117,46.6057692 C58.1332117,47.1746278 58.1737226,47.4590571 58.3357664,47.7434864 C58.5788321,48.1498139 59.0244526,48.3936104 59.5105839,48.3936104 C59.9967153,48.3936104 60.4423358,48.1498139 60.6854015,47.7434864 C60.8474453,47.4590571 60.8879562,47.1746278 60.8879562,46.6057692 L60.8879562,42.6643921 L61.819708,42.6643921 L61.819708,46.8901985 C61.819708,48.3123449 60.8474453,49.3687965 59.5105839,49.3687965 C58.1737226,49.3687965 57.2014599,48.3123449 57.2014599,46.8901985 L57.2014599,42.6643921 L58.1332117,42.6643921 L58.1332117,46.6057692 L58.1332117,46.6057692 Z" id="Path" fill="#000000" fill-rule="nonzero"></path>
                                <rect id="Rectangle" fill="#000000" fill-rule="nonzero" x="63.3186131" y="42.6643921" width="1" height="6.54187345"></rect>
                                <path d="M66.6810219,49.2062655 L65.7492701,49.2062655 L65.7492701,42.6643921 L66.8025547,42.6643921 C67.7748175,42.6643921 68.1394161,42.7456576 68.5445255,43.0707196 C68.949635,43.3957816 69.2332117,44.005273 69.2332117,44.6147643 C69.2332117,45.7931141 68.4229927,46.5651365 67.1266423,46.5651365 L66.6810219,46.5651365 L66.6810219,49.2062655 Z M67.0456204,45.6305831 C67.9368613,45.6305831 68.3419708,45.3055211 68.3419708,44.5741315 C68.3419708,43.9240074 67.8963504,43.5583127 67.0051095,43.5583127 L66.6810219,43.5583127 L66.6810219,45.6305831 L67.0456204,45.6305831 Z" id="Shape" fill="#000000" fill-rule="nonzero"></path>
                                <polygon id="Path" fill="#000000" fill-rule="nonzero" points="71.2992701 42.1361663 73.4463504 47.2558933 75.6744526 42.1361663 76.8492701 49.2062655 75.8770073 49.2062655 75.2693431 45.2648883 73.4463504 49.4906948 71.6233577 45.2242556 70.9751825 49.2062655 70.0029197 49.2062655"></polygon>
                                <polygon id="Path" fill="#000000" fill-rule="nonzero" points="79.1178832 43.5989454 79.1178832 45.1429901 81.5485401 45.1429901 81.5485401 46.0775434 79.1178832 46.0775434 79.1178832 48.2717122 81.5890511 48.2717122 81.5890511 49.2062655 78.1456204 49.2062655 78.1456204 42.6643921 81.5890511 42.6643921 81.5890511 43.5989454"></polygon>
                                <polygon id="Path" fill="#000000" fill-rule="nonzero" points="82.8448905 42.2174318 87.3821168 47.1746278 87.3821168 42.6643921 88.3543796 42.6643921 88.3543796 49.6125931 83.7766423 44.6147643 83.7766423 49.2062655 82.8448905 49.2062655"></polygon>
                                <polygon id="Path" fill="#000000" fill-rule="nonzero" points="91.5547445 49.2062655 90.6229927 49.2062655 90.6229927 43.5989454 89.1645985 43.5989454 89.1645985 42.6643921 92.9726277 42.6643921 92.9726277 43.5989454 91.5547445 43.5989454"></polygon>
                                <path d="M100.791241,44.167804 C100.183577,43.6395782 99.7379562,43.4364144 99.089781,43.4364144 C97.8339416,43.4364144 96.8211679,44.5334988 96.8211679,45.9150124 C96.8211679,47.2965261 97.8339416,48.3529777 99.130292,48.3529777 C99.6974453,48.3529777 100.183577,48.1498139 100.791241,47.6215881 L100.791241,48.799938 C100.224088,49.125 99.6974453,49.287531 99.130292,49.287531 C97.3072993,49.287531 95.8894161,47.7841191 95.8894161,45.8743797 C95.8894161,44.0459057 97.3883212,42.501861 99.130292,42.501861 C99.7784672,42.501861 100.224088,42.6237593 100.791241,42.9894541 L100.791241,44.167804 Z" id="Path" fill="#000000" fill-rule="nonzero"></path>
                                <path d="M108.123723,45.9150124 C108.123723,47.7841191 106.665328,49.3281638 104.882847,49.3281638 C103.059854,49.3281638 101.60146,47.8247519 101.60146,45.9556452 C101.60146,44.0459057 103.059854,42.5424938 104.882847,42.5424938 C106.665328,42.501861 108.123723,44.0459057 108.123723,45.9150124 M102.573723,45.9556452 C102.573723,47.3371588 103.586496,48.3936104 104.882847,48.3936104 C106.179197,48.3936104 107.191971,47.2965261 107.191971,45.9556452 C107.191971,44.5334988 106.179197,43.4770471 104.882847,43.4770471 C103.586496,43.4364144 102.573723,44.5334988 102.573723,45.9556452" id="Shape" fill="#000000" fill-rule="nonzero"></path>
                                <path d="M110.311314,48.7186725 C110.311314,49.0437345 110.068248,49.3281638 109.744161,49.3281638 C109.420073,49.3281638 109.177007,49.0437345 109.177007,48.7186725 C109.177007,48.3936104 109.420073,48.1091811 109.744161,48.1091811 C110.068248,48.1498139 110.311314,48.3936104 110.311314,48.7186725" id="Path" fill="#000000" fill-rule="nonzero"></path>
                                <path d="M106.74635,36.9351737 C106.74635,38.1135236 105.814599,39.0887097 104.639781,39.0887097 C103.464964,39.0887097 102.492701,38.1541563 102.492701,36.9351737 C102.492701,35.7568238 103.424453,34.8222705 104.59927,34.8222705 C105.774088,34.7816377 106.74635,35.7568238 106.74635,36.9351737 M104.59927,35.1066998 C103.627007,35.1066998 102.857299,35.9193548 102.857299,36.9351737 C102.857299,37.9509926 103.667518,38.7636476 104.639781,38.7636476 C105.612044,38.7636476 106.422263,37.9509926 106.422263,36.9351737 C106.381752,35.9193548 105.612044,35.1066998 104.59927,35.1066998 L104.59927,35.1066998 Z M105.612044,38.1541563 L105.044891,38.1541563 L104.315693,37.1789702 L104.315693,38.1541563 L103.829562,38.1541563 L103.829562,35.6755583 L104.315693,35.6755583 C104.963869,35.6755583 105.328467,35.9193548 105.328467,36.4069479 C105.328467,36.7320099 105.125912,37.0164392 104.842336,37.0977047 L104.801825,37.0977047 L105.612044,38.1541563 Z M104.396715,36.8132754 C104.720803,36.8132754 104.882847,36.6913772 104.882847,36.4475806 C104.882847,36.2444169 104.720803,36.1225186 104.396715,36.1225186 L104.315693,36.1225186 L104.315693,36.8132754 L104.396715,36.8132754 Z" id="Shape" fill="#000000" fill-rule="nonzero"></path>
                            </g>
                        </g>
                    </g>
                </g>
            </g>
        </g>
    </g>
</svg>